<svg id="filled_outline" height="512" viewBox="0 0 512 512" width="512" xmlns="http://www.w3.org/2000/svg" data-name="filled outline"><path d="m488 184v208h-368l-9.6001 12.8a48.01028 48.01028 0 0 1 -76.7998 0l-9.6001-12.8v-208z" fill="#8098ab"/><path d="m120 184h368v168h-368z" fill="#718799"/><circle cx="432" cy="256" fill="#d1e4ff" r="24"/><path d="m488 352v40h-368l-9.6001 12.8a48.01028 48.01028 0 0 1 -76.7998 0l-9.6001-12.8v-48l21.26 26.58008a35.76518 35.76518 0 0 0 53.21 2.95l21.53-21.53008z" fill="#e0edff"/><path d="m216 248h-32a32 32 0 0 0 -32 32v72h64z" fill="#d1e4ff"/><path d="m24 184 24-56h416l24 56z" fill="#e0edff"/><path d="m424.913 272.511-40.913-112.511h-144l-40.913 112.511z" fill="#d1e4ff"/><circle cx="312" cy="320" fill="#e8f2ff" r="128"/><circle cx="312" cy="320" fill="#9ce6ed" r="88"/><circle cx="312" cy="320" fill="#6cdbe6" r="56"/><path d="m24 184 11.65211 19.42019a42.38855 42.38855 0 0 0 36.34789 20.57981 42.38855 42.38855 0 0 0 36.34787-20.57981l11.65213-19.42019z" fill="#d1e4ff"/><path d="m384 160v-64l-32-32h-80l-32 32v64" fill="#e8f2ff"/><circle cx="168" cy="184" fill="#f0f6ff" r="24"/><path d="m128 88h64v40h-64z" fill="#d1e4ff"/><path d="m88 96h40v32h-40z" fill="#bdd1f2"/><path d="m384 96h-144l32-32h80z" fill="#e0edff"/><path d="m384 96h72v32h-72z" fill="#d1e4ff"/><path d="m312 224a96 96 0 1 0 96 96 96.10874 96.10874 0 0 0 -96-96zm0 176a80 80 0 1 1 80-80 80.09041 80.09041 0 0 1 -80 80z"/><circle cx="168" cy="184" r="8"/><path d="m495.35352 180.84863-24-56a8.00075 8.00075 0 0 0 -7.35352-4.84863v-24a8.00039 8.00039 0 0 0 -8-8h-16v-16a8.00039 8.00039 0 0 0 -8-8h-32a8.00039 8.00039 0 0 0 -8 8v16h-4.68555l-29.65722-29.65723a8.00235 8.00235 0 0 0 -5.65723-2.34277h-80a8.00235 8.00235 0 0 0 -5.65723 2.34277l-32 32a8.00235 8.00235 0 0 0 -2.34277 5.65723v24h-32v-32a8.00039 8.00039 0 0 0 -8-8h-64a8.00039 8.00039 0 0 0 -8 8h-32a8.00039 8.00039 0 0 0 -8 8v24h-32a8.00075 8.00075 0 0 0 -7.35352 4.84863l-24 56a8.0027 8.0027 0 0 0 -.64648 3.15137v208a8.0033 8.0033 0 0 0 1.59961 4.7998l9.59961 12.79981a56.001 56.001 0 0 0 89.60156 0l7.19922-9.59961h78.09106a135.85716 135.85716 0 0 0 219.81812 0h66.09082a8.00039 8.00039 0 0 0 8-8v-208a8.0027 8.0027 0 0 0 -.64648-3.15137zm-19.48584-4.84863h-77.53663l-6.33105-17.4104v-22.5896h66.72461zm-297.74683 168h-18.12085v-64a24.0275 24.0275 0 0 1 24-24h8.03076a136.05282 136.05282 0 0 0 -13.90991 88zm-146.12085-131.7876a50.32316 50.32316 0 0 0 80 0v136.47315l-19.18359 19.18359a27.76077 27.76077 0 0 1 -41.30664-2.28714l-19.50977-24.38791zm6.13037-20.2124h67.73926l-4.38233 7.30371a34.38689 34.38689 0 0 1 -58.9746 0zm89.86963 0h9.0127a32.00443 32.00443 0 0 0 61.9746 0h20.86329l-17.15235 47.168c-.20434.27588-.40478.55469-.60718.832h-18.09106a40.04584 40.04584 0 0 0 -40 40v64h-16zm24-8a16 16 0 1 1 16 16 16.01833 16.01833 0 0 1 -16-16zm93.60352-16h132.793l15.94 43.834a135.69777 135.69777 0 0 0 -164.67286 0zm130.39648-64v48h-128v-48zm47.60889 138.38135a15.994 15.994 0 1 1 15.07422 28.146 135.83637 135.83637 0 0 0 -15.07422-28.146zm20.0332 43.41723a32.00017 32.00017 0 1 0 -26.52539-58.13867l-12.96729-35.65991h75.85059v152h-34.12109a136.57271 136.57271 0 0 0 -2.23682-58.20142zm4.35791-165.79858h-56v-16h56zm-40-40h16v8h-16zm-132.68652-8h73.373l16 16h-105.373zm-91.31348 24v24h-48v-24zm-88 8h24v16h-24zm-42.72461 32h178.72461v22.5896l-6.331 17.4104h-26.6817a32.00443 32.00443 0 0 0 -61.9746 0h-100.88038zm18.72461 280a40.19106 40.19106 0 0 1 -32-16l-8-10.667v-22.52685l7.0166 8.771a43.76161 43.76161 0 0 0 65.11426 3.60644l7.86914-7.86959v18.019l-8 10.667a40.19106 40.19106 0 0 1 -32 16zm56-32v-24h54.0061a135.17171 135.17171 0 0 0 10.02466 24zm184 56a120 120 0 1 1 120-120 120.13623 120.13623 0 0 1 -120 120zm119.96924-56a135.20822 135.20822 0 0 0 10.0249-24h38.00586v24z"/></svg>