<svg id="Capa_1" enable-background="new 0 0 512 512" height="512" viewBox="0 0 512 512" width="512" xmlns="http://www.w3.org/2000/svg"><g><path d="m277.644 404.346h23v100h-23z" fill="#abc4d6"/><g fill="#f9f5f3"><path d="m277.644 156.312h23v322.556h-23z"/><path d="m289.145 471.368v-314.75c.001-18.298 14.834-33.131 33.132-33.131h149.092c18.298 0 33.132 14.833 33.132 33.132v281.619z"/><path d="m289.145 471.368-.001-314.75c0-18.298-14.834-33.131-33.132-33.131h-85.671l-85.384 8.325c-6.851 6.07-11.169 14.934-11.169 24.806v281.619z"/></g><path d="m266.144 156.618.001 311.212 23 3.538-.001-314.75c0-18.298-14.834-33.131-33.132-33.131h-23c18.298 0 33.132 14.833 33.132 33.131z" fill="#f9eae0"/><path d="m471.369 123.487h-23c18.298 0 33.132 14.833 33.132 33.132v281.619l-192.356 29.592v3.538l215.355-33.131v-281.618c0-18.299-14.833-33.132-33.131-33.132z" fill="#f9eae0"/><path d="m289.145 471.368c.001-18.298 14.834-33.131 33.132-33.131h182.223v33.131c0 18.298-14.833 33.132-33.132 33.132h-182.223z" fill="#bdd3dd"/><path d="m289.144 471.368c0-18.298-14.834-33.131-33.132-33.131h-182.223v33.131c0 18.298 14.834 33.132 33.132 33.132h182.224z" fill="#bdd3dd"/><path d="m481.5 438.237v33.131c0 18.298-14.833 33.132-33.132 33.132h23c18.298 0 33.132-14.833 33.132-33.132v-33.131z" fill="#abc4d6"/><path d="m289.144 471.368c0-18.298-14.834-33.131-33.132-33.131h-23c18.298 0 33.131 14.833 33.132 33.131v33.132h23.001z" fill="#abc4d6"/><g><path d="m208.861 162.004-129.302-129.302-46.857 46.857 129.302 129.302c1.5 1.5 3.535 2.343 5.657 2.343h7.141l36.403-36.403v-7.141c-.001-2.121-.843-4.156-2.344-5.656z" fill="#a0c8ff"/><path d="m208.861 162.004-129.302-129.302-11.476 11.476 133.806 133.806c1.097 1.097 1.838 2.481 2.159 3.974l7.156-7.156v-7.141c0-2.122-.842-4.157-2.343-5.657z" fill="#91b2fa"/><path d="m211.204 203.205v-35.545c0-.966-.183-1.911-.515-2.799l-45.828 45.828c.888.332 1.833.515 2.799.515h35.544c4.419.001 8-3.581 8-7.999z" fill="#f9eae0"/><path d="m35.781 12.353-23.428 23.428c-6.47 6.47-6.47 16.959 0 23.429l23.429 23.429 46.858-46.858-23.43-23.428c-6.469-6.47-16.959-6.47-23.429 0z" fill="#fa8ebb"/><path d="m36.02 12.137c.078.075.161.139.238.215l34.905 34.905 11.476-11.476-23.429-23.428c-6.393-6.394-16.704-6.457-23.19-.216z" fill="#f57fb0"/><g><path d="m471.369 115.987h-149.093c-13.663 0-25.763 6.785-33.132 17.155-7.37-10.37-19.47-17.155-33.132-17.155h-82.563l-85.507-85.507c-.001-.001-.002-.002-.003-.003s-.002-.002-.004-.003l-23.424-23.424c-4.545-4.546-10.589-7.05-17.017-7.05s-12.472 2.504-17.017 7.049l-23.427 23.428c-4.546 4.545-7.05 10.588-7.05 17.016 0 6.429 2.504 12.473 7.049 17.018l23.423 23.424c.001.001.002.003.004.004.001.001.003.002.004.004l44.101 44.101c-5.327 7.015-8.292 15.633-8.292 24.575v134.095c0 4.143 3.358 7.5 7.5 7.5s7.5-3.357 7.5-7.5v-134.096c0-4.942 1.437-9.728 4.052-13.816l73.694 73.695c.178.178.364.345.557.503 1.143.931 2.55 1.509 4.014 1.657.243.024.488.036.732.036h43.748l9.518 9.518c1.464 1.464 3.384 2.196 5.303 2.196.178 0 16.54-.025 16.54-.025 4.142 0 7.5-3.357 7.5-7.5s-3.358-7.5-7.5-7.5h-13.458l-7.295-7.295v-43.746c0-.246-.012-.491-.036-.736-.148-1.464-.725-2.873-1.658-4.014-.158-.193-.325-.378-.503-.556l-28.047-28.047h67.563c14.133 0 25.631 11.498 25.632 25.63v283.254c-6.997-5.705-15.921-9.134-25.632-9.134h-174.724v-110.025c0-4.143-3.358-7.5-7.5-7.5s-7.5 3.357-7.5 7.5v150.655c0 22.404 18.228 40.632 40.632 40.632h292.324c4.143 0 7.5-3.357 7.5-7.5s-3.357-7.5-7.5-7.5h-102.6l.001-18.132h141.592c4.143 0 7.5-3.357 7.5-7.5s-3.357-7.5-7.5-7.5h-140.47c3.215-10.485 12.985-18.131 24.509-18.131h174.723v25.631c0 14.134-11.498 25.632-25.631 25.632h-42.124c-4.143 0-7.5 3.357-7.5 7.5s3.357 7.5 7.5 7.5h42.124c22.404 0 40.631-18.227 40.631-40.632v-314.75c0-22.404-18.227-40.631-40.631-40.631zm-453.714-62.084c-1.712-1.712-2.655-3.988-2.655-6.41 0-2.421.943-4.697 2.656-6.409l23.428-23.429c1.711-1.712 3.988-2.655 6.41-2.655 2.421 0 4.698.943 6.411 2.656l18.123 18.124-18.119 18.119c-.002.002-.003.003-.005.005s-.003.003-.005.005l-18.119 18.119zm146.683 146.684-117.951-117.952 12.821-12.821 117.951 117.952zm39.355 3.106h-21.248l21.248-21.248zm-3.106-39.355-12.821 12.821-117.951-117.952 12.821-12.82 82.393 82.392.021.021zm81.058 332.662h-174.724c-14.133 0-25.632-11.498-25.632-25.632v-25.631h174.724c11.524 0 21.294 7.646 24.509 18.131h-140.47c-4.142 0-7.5 3.357-7.5 7.5s3.358 7.5 7.5 7.5h141.592v18.132zm215.355-66.263h-174.724c-9.711 0-18.634 3.429-25.632 9.134l.001-283.254c0-14.133 11.498-25.63 25.631-25.63h149.093c14.133 0 25.631 11.498 25.631 25.631z"/><path d="m371.974 180.685h49.697c4.143 0 7.5-3.357 7.5-7.5s-3.357-7.5-7.5-7.5h-49.697c-4.143 0-7.5 3.357-7.5 7.5 0 4.142 3.357 7.5 7.5 7.5z"/><path d="m454.803 215.382h-115.961c-4.143 0-7.5 3.357-7.5 7.5s3.357 7.5 7.5 7.5h115.961c4.143 0 7.5-3.357 7.5-7.5s-3.358-7.5-7.5-7.5z"/><path d="m454.803 248.513h-115.961c-4.143 0-7.5 3.357-7.5 7.5s3.357 7.5 7.5 7.5h115.961c4.143 0 7.5-3.357 7.5-7.5s-3.358-7.5-7.5-7.5z"/><path d="m454.803 281.645h-115.961c-4.143 0-7.5 3.358-7.5 7.5 0 4.143 3.357 7.5 7.5 7.5h115.961c4.143 0 7.5-3.357 7.5-7.5s-3.358-7.5-7.5-7.5z"/><path d="m454.803 314.776h-115.961c-4.143 0-7.5 3.357-7.5 7.5s3.357 7.5 7.5 7.5h115.961c4.143 0 7.5-3.357 7.5-7.5 0-4.142-3.358-7.5-7.5-7.5z"/><path d="m454.803 347.908h-99.395c-4.143 0-7.5 3.357-7.5 7.5s3.357 7.5 7.5 7.5h99.395c4.143 0 7.5-3.357 7.5-7.5s-3.358-7.5-7.5-7.5z"/></g></g></g></svg>