<?xml version="1.0" encoding="UTF-8"?>
<svg enable-background="new 0 0 24.0 24.0" version="1.1" viewBox="0 0 24 24" xml:space="preserve" xmlns="http://www.w3.org/2000/svg">
<defs>
<filter id="c" x="-200%" y="-200%" width="600%" height="600%">
	<feOffset dx="0.0" dy="0.0" in="SourceGraphic" result="offOut"/>
	<feGaussianBlur in="offOut" result="blurOut" stdDeviation="0.2925"/>
	<feFlood flood-color="#000000" result="flood"/>
	<feComposite in="flood" in2="blurOut" operator="in" result="blendOut0"/>
	<feBlend in="blendOut0" in2="blendOut0" result="blendOut1"/>
	<feBlend in="SourceGraphic" in2="blendOut1"/>
</filter>

<filter id="b" x="-200%" y="-200%" width="600%" height="600%">
	<feOffset dx="0.0" dy="0.0" in="SourceGraphic" result="offOut"/>
	<feGaussianBlur in="offOut" result="blurOut" stdDeviation="0.038345437"/>
	<feFlood flood-color="#000000" result="flood"/>
	<feComposite in="flood" in2="blurOut" operator="in" result="blendOut0"/>
	<feBlend in="blendOut0" in2="blendOut0" result="blendOut1"/>
	<feBlend in="SourceGraphic" in2="blendOut1"/>
</filter>

<filter id="a" x="-200%" y="-200%" width="600%" height="600%">
	<feOffset dx="0.0" dy="0.0" in="SourceGraphic" result="offOut"/>
	<feGaussianBlur in="offOut" result="blurOut" stdDeviation="0.019172719"/>
	<feFlood flood-color="#000000" result="flood"/>
	<feComposite in="flood" in2="blurOut" operator="in" result="blendOut0"/>
	<feBlend in="SourceGraphic" in2="blendOut0"/>
</filter>

</defs>
	<path d="m12 2.25c5.38 0 9.75 4.37 9.75 9.75s-4.37 9.75-9.75 9.75-9.75-4.37-9.75-9.75 4.37-9.75 9.75-9.75z" fill="#00EE40" filter="url(#c)" stroke="#8C8C8C" stroke-linecap="square" stroke-opacity=".604" stroke-width=".912"/>

	<text transform="rotate(-0 12 16) scale(.75718 1)" fill-opacity="0" font-family="default" font-size="3.7566" font-weight="bold" stroke="#939393" stroke-opacity=".141" stroke-width=".912">
		<tspan x="7.063858" y="17.4675">SUNRESH</tspan>
	</text> 

	<text transform="rotate(-0 12 16) scale(.75718 1)" fill="#E500EE" font-family="default" font-size="3.7566" font-weight="bold" stroke-width="0">

		<tspan x="7.063858" y="17.4675">SUNRESH</tspan>
	</text>
	<path d="m4.62 11.17 1.52 0.22 0.81-1.62 0.81 1.62 1.62 0.17-1.62 1.45 0.51 1.22-1.72-0.76-1.62 0.35 0.9-1.21-1.38-1.56" fill="#EEFF24" stroke="#939393" stroke-linecap="square" stroke-opacity=".141" stroke-width=".36898"/>
	<path d="m5.35 10c-0.15-1.29-0.3-2.58 0.15-3.59 0.44-1.02 1.49-1.75 2.52-1.93 1.02-0.18 2.02 0.19 2.52 0.49 0.49 0.3 0.48 0.52-0.03 0.37-0.5-0.15-1.5-0.67-2.47-0.53-0.96 0.15-1.89 0.97-2.26 1.9-0.38 0.93-0.19 1.97-0.01 3" fill="#4AFFF5" stroke="#939393" stroke-linecap="square" stroke-opacity=".141" stroke-width=".20531"/>
	<path d="m14.04 8.09c0.31 1.26 0.62 2.53 0.3 3.58-0.32 1.06-1.27 1.92-2.26 2.23-1 0.3-2.03 0.06-2.56-0.17-0.53-0.24-0.55-0.46-0.03-0.37 0.52 0.08 1.58 0.48 2.52 0.21s1.76-1.19 2.01-2.16c0.26-0.97-0.05-1.98-0.36-2.98" fill="#4AFFF5" stroke="#939393" stroke-linecap="square" stroke-opacity=".141" stroke-width=".20531"/>
	<path d="m16.51 11.04c0.19-0.34 0.37-0.68 0.53-1.05 0.17-0.38 0.32-0.8 0.47-1.25 0.16-0.46 0.31-0.95 0.47-0.95 0.16-0.01 0.32 0.46 0.47 0.93 0.14 0.46 0.26 0.92 0.46 1.28 0.2 0.35 0.48 0.6 0.56 1.04 0.07 0.45-0.04 1.09-0.36 1.4s-0.85 0.3-1.23 0.25-0.62-0.14-0.83-0.25-0.38-0.23-0.46-0.47c-0.09-0.23-0.08-0.58-0.08-0.93z" fill="#000605" fill-opacity=".271" filter="url(#b)" stroke="#939393" stroke-linecap="square" stroke-opacity=".141" stroke-width=".095568"/>
	<path d="m15.51 10.79c0.19-0.34 0.37-0.68 0.53-1.06 0.17-0.38 0.32-0.79 0.47-1.25 0.16-0.45 0.31-0.94 0.47-0.95s0.32 0.47 0.47 0.93c0.14 0.47 0.26 0.93 0.46 1.28 0.2 0.36 0.48 0.61 0.56 1.05 0.07 0.44-0.04 1.08-0.36 1.4-0.32 0.31-0.85 0.3-1.23 0.25s-0.62-0.14-0.83-0.25-0.38-0.23-0.46-0.47c-0.09-0.23-0.08-0.58-0.08-0.93z" fill="#81FFFF" fill-opacity=".635" filter="url(#a)" stroke="#939393" stroke-linecap="square" stroke-opacity=".141" stroke-width="0"/>
	<path d="m9.71 6.17 1.52 0.22 0.81-1.62 0.81 1.62 1.61 0.17-1.61 1.45 0.5 1.22-1.72-0.76-1.62 0.35 0.9-1.21-1.37-1.56" fill="#EEFF24" stroke="#939393" stroke-linecap="square" stroke-opacity=".141" stroke-width=".36898"/>
</svg>
